<svg width="34" height="34" viewBox="0 0 34 34" fill="none" xmlns="http://www.w3.org/2000/svg">
<path d="M24.816 17.7869C24.8027 15.5225 25.8287 13.8158 27.9006 12.5574C26.7418 10.8973 24.9887 9.98418 22.6777 9.8082C20.4896 9.63555 18.0957 11.0832 17.2191 11.0832C16.2928 11.0832 14.1744 9.86797 12.5076 9.86797C9.06777 9.92109 5.41211 12.6105 5.41211 18.0824C5.41211 19.6994 5.70762 21.3695 6.29863 23.0895C7.08887 25.3539 9.9377 30.9022 12.9094 30.8125C14.4633 30.776 15.5623 29.7102 17.5844 29.7102C19.5467 29.7102 20.5627 30.8125 22.2959 30.8125C25.2941 30.7693 27.8707 25.7258 28.6211 23.4547C24.6002 21.5588 24.816 17.9031 24.816 17.7869ZM21.3264 7.65996C23.0098 5.66113 22.857 3.8416 22.8072 3.1875C21.3197 3.27383 19.5998 4.2002 18.6203 5.33906C17.5412 6.56094 16.907 8.07168 17.0432 9.775C18.6502 9.89785 20.1178 9.07109 21.3264 7.65996Z" fill="black"/>
</svg>
