<svg width="34" height="34" viewBox="0 0 34 34" fill="none" xmlns="http://www.w3.org/2000/svg">
<path d="M30.8918 14.2256H29.7507V14.1668H17.0007V19.8335H25.0069C23.8389 23.1322 20.7003 25.5002 17.0007 25.5002C12.3065 25.5002 8.50065 21.6943 8.50065 17.0002C8.50065 12.306 12.3065 8.50016 17.0007 8.50016C19.1674 8.50016 21.1387 9.31758 22.6397 10.6528L26.6467 6.64575C24.1166 4.2877 20.7322 2.8335 17.0007 2.8335C9.17711 2.8335 2.83398 9.17662 2.83398 17.0002C2.83398 24.8237 9.17711 31.1668 17.0007 31.1668C24.8242 31.1668 31.1673 24.8237 31.1673 17.0002C31.1673 16.0503 31.0696 15.1231 30.8918 14.2256Z" fill="#FFC107"/>
<path d="M4.4668 10.4063L9.12125 13.8197C10.3807 10.7017 13.4308 8.50016 17 8.50016C19.1668 8.50016 21.1381 9.31758 22.6391 10.6528L26.6461 6.64575C24.116 4.2877 20.7315 2.8335 17 2.8335C11.5586 2.8335 6.83971 5.90554 4.4668 10.4063Z" fill="#FF3D00"/>
<path d="M17.0005 31.1667C20.6598 31.1667 23.9847 29.7663 26.4986 27.489L22.114 23.7787C20.6439 24.8968 18.8475 25.5015 17.0005 25.5C13.3158 25.5 10.1871 23.1505 9.00842 19.8716L4.38867 23.431C6.73326 28.0188 11.4947 31.1667 17.0005 31.1667Z" fill="#4CAF50"/>
<path d="M30.8911 14.2253H29.75V14.1665H17V19.8332H25.0063C24.4476 21.4031 23.4411 22.775 22.1113 23.7793L22.1135 23.7779L26.498 27.4881C26.1878 27.77 31.1667 24.0832 31.1667 16.9998C31.1667 16.05 31.0689 15.1228 30.8911 14.2253Z" fill="#1976D2"/>
</svg>
