<svg width="64" height="65" viewBox="0 0 64 65" fill="none" xmlns="http://www.w3.org/2000/svg">
<path d="M32.0007 10.2799C32.4606 10.2805 32.9061 10.4396 33.2624 10.7303C33.6186 11.021 33.8639 11.4255 33.9568 11.8759L35.5128 19.4359L43.1928 18.5799L43.5408 18.5719C43.9405 18.5975 44.3234 18.7426 44.6397 18.9883C44.9561 19.2341 45.1913 19.5692 45.315 19.9502C45.4387 20.3312 45.4452 20.7406 45.3335 21.1253C45.2218 21.51 44.9972 21.8523 44.6887 22.1079L44.4008 22.3079L37.6807 26.1199L40.8687 33.1599L40.9807 33.4919C41.0799 33.8795 41.0604 34.288 40.925 34.6645C40.7895 35.0411 40.5442 35.3683 40.2208 35.6039C39.8969 35.8376 39.5104 35.969 39.1112 35.9811C38.7119 35.9932 38.3182 35.8855 37.9807 35.6719L37.7008 35.4639L31.9807 30.2639L26.2607 35.4639C25.9204 35.7735 25.4836 35.9564 25.0242 35.9815C24.5647 36.0067 24.1106 35.8727 23.7385 35.602C23.3663 35.3313 23.0989 34.9407 22.9813 34.4958C22.8636 34.0509 22.903 33.5791 23.0927 33.1599L26.2767 26.1199L19.5567 22.3039C19.1599 22.0742 18.8539 21.7154 18.6896 21.2874C18.5254 20.8593 18.5129 20.3879 18.6542 19.9517C18.7956 19.5156 19.0822 19.1411 19.4663 18.8907C19.8503 18.6403 20.3087 18.5292 20.7647 18.5759L28.4447 19.4319L30.0047 11.8719L30.1047 11.5359C30.253 11.1637 30.5095 10.8447 30.8411 10.62C31.1727 10.3954 31.5642 10.2755 31.9648 10.2759L32.0007 10.2799Z" fill="#48AA71"/>
<path fill-rule="evenodd" clip-rule="evenodd" d="M31.9995 0C36.2579 0.00488246 40.4384 1.14176 44.1128 3.29416C47.7872 5.44657 50.8233 8.5371 52.9101 12.2491C54.9969 15.9612 56.0594 20.1613 55.9886 24.4191C55.9179 28.6769 54.7165 32.8393 52.5075 36.48L59.3075 46.68C59.7099 47.2846 59.94 47.9874 59.9733 48.7129C60.0066 49.4384 59.8417 50.1593 59.4963 50.7982C59.151 51.4371 58.6382 51.9699 58.013 52.3395C57.3878 52.7091 56.6737 52.9014 55.9475 52.896L46.5875 52.816L43.0675 61.496C42.793 62.1693 42.3406 62.7553 41.7586 63.1912C41.1766 63.6271 40.4871 63.8964 39.7637 63.9704C39.0404 64.0444 38.3106 63.9202 37.6524 63.6111C36.9942 63.3021 36.4325 62.8198 36.0275 62.216L31.9875 56.176L27.9475 62.256C27.5435 62.8602 26.9826 63.3429 26.325 63.6522C25.6673 63.9616 24.9378 64.086 24.2148 64.0119C23.4918 63.9379 22.8027 63.6683 22.2214 63.2321C21.6401 62.7959 21.1886 62.2095 20.9155 61.536L17.3955 52.856L8.03548 52.936C7.30869 52.9428 6.59379 52.7513 5.96776 52.382C5.34173 52.0128 4.82826 51.4797 4.48265 50.8403C4.13703 50.201 3.97234 49.4794 4.00632 48.7534C4.0403 48.0273 4.27166 47.3243 4.67548 46.72L11.4755 36.48C9.276 32.839 8.08285 28.6793 8.01802 24.4261C7.95319 20.1728 9.019 15.9786 11.1065 12.2723C13.194 8.56604 16.2283 5.48056 19.8991 3.33136C23.57 1.18216 27.7457 0.0463311 31.9995 0.04V0ZM7.99948 48.8L18.7195 48.708C19.1209 48.7031 19.5145 48.8192 19.8491 49.041C20.1837 49.2629 20.4438 49.5803 20.5955 49.952L24.6355 59.912L32.6355 47.872C32.4221 47.8827 32.2075 47.8893 31.9915 47.892C24.8315 47.892 18.3915 44.744 13.9915 39.772L7.99148 48.812L7.99948 48.8ZM49.9995 39.76C46.8315 43.3653 42.6491 45.9305 37.9995 47.12L34.4275 52.44L39.3875 59.84L43.4275 49.88C43.5783 49.5082 43.8375 49.1904 44.1714 48.9678C44.5052 48.7452 44.8983 48.6282 45.2995 48.632L56.0195 48.728L50.0195 39.728L49.9995 39.76ZM31.9995 3.88C20.9595 3.88 11.9995 12.84 11.9995 23.88C11.9995 34.92 20.9595 43.88 31.9995 43.88C43.0395 43.88 51.9995 34.92 51.9995 23.88C51.9995 12.84 43.0395 3.88 31.9995 3.88Z" fill="#48AA71"/>
</svg>
