<svg width="64" height="64" viewBox="0 0 64 64" fill="none" xmlns="http://www.w3.org/2000/svg">
<path d="M4.49394 29.1201L7.65737 28.9236C11.4188 28.6908 15.1937 29.0408 18.8482 29.9613L24.1511 31.2961C25.5575 31.651 26.789 32.5006 27.6201 33.6894C28.4513 34.8781 28.8264 36.3265 28.6768 37.7693C28.3202 41.2664 25.0654 43.7121 21.6094 43.0996L16.5579 42.1944L34.3728 45.3898L52.8277 41.0104C54.2625 40.6728 55.7724 40.9074 57.0371 41.6643C58.3019 42.4213 59.2221 43.6412 59.6025 45.0653C60.3339 47.8218 58.9031 50.6881 56.2654 51.7624L41.4997 57.7556C34.3209 60.6713 26.3225 60.8551 19.0174 58.2721L3.7168 52.855M43.7397 5.73726C43.8988 5.34387 44.1718 5.00696 44.5236 4.76973C44.8755 4.5325 45.2902 4.40576 45.7145 4.40576C46.1389 4.40576 46.5536 4.5325 46.9054 4.76973C47.2573 5.00696 47.5302 5.34387 47.6894 5.73726L50.3728 12.2881L57.6551 12.9281C59.5568 13.0927 60.2974 15.4881 58.8208 16.695L54.4917 20.2515C54.1893 20.5018 53.9613 20.8301 53.8323 21.2008C53.7034 21.5716 53.6784 21.9705 53.7602 22.3544L55.1957 28.9921C55.286 29.4073 55.25 29.8401 55.0925 30.2347C54.935 30.6293 54.663 30.9678 54.3116 31.2067C53.9602 31.4455 53.5453 31.5739 53.1204 31.5751C52.6955 31.5764 52.2799 31.4506 51.9271 31.2138L45.7145 27.063L39.5019 31.223C39.1488 31.4603 38.7326 31.5864 38.3071 31.5851C37.8816 31.5837 37.4663 31.455 37.1146 31.2155C36.7629 30.9759 36.491 30.6366 36.334 30.2411C36.1769 29.8457 36.1419 29.4122 36.2334 28.9967L37.6688 22.3544C37.7497 21.9712 37.7243 21.5732 37.5954 21.2034C37.4665 20.8335 37.2389 20.506 36.9374 20.2561L32.6082 16.6995C32.2801 16.4312 32.0395 16.0711 31.9172 15.6653C31.7949 15.2595 31.7964 14.8264 31.9216 14.4214C32.0468 14.0165 32.2899 13.6581 32.6199 13.3921C32.9498 13.1261 33.3517 12.9645 33.7739 12.9281L41.0562 12.2881L43.7397 5.73726Z" stroke="#48AA71" stroke-width="4" stroke-linecap="round" stroke-linejoin="round"/>
</svg>
